# File created by Blade
# Date/Time:  Thu Sep 25 21:01:51 2014
# Frame Rate: 120.000 fps
#------------------------------------------------------
:FULLY-SPECIFIED
:DEGREES
1868
root 3.232283 4.966187 -7.206591 26.744313 -4.588797 -14.435262
Spine -10.197279 12.482462 28.228291
Head -17.601601 8.284037 -3.242090
LeftShoulder -9.376729 18.760325 11.758765
LeftArm 25.434052 47.358265 -69.338258
LeftForeArm 19.079418 -0.000000 44.111466
LeftHand -27.271377 -0.000000 5.674134
LeftHandThumb1 -26.253704 0.000000 33.147579
RightShoulder -19.497118 6.553569 -22.653378
RightArm -34.476693 -7.916815 72.633784
RightForeArm -4.186637 -0.000000 16.758961
RightHand -1.817098 -0.000000 1.503066
RightHandThumb1 -24.326973 -0.000000 -32.862282
LeftUpLeg -109.490750 -16.165911 -59.319685
LeftLeg 136.710543 -0.000000 -0.000000
LeftFoot 40.893158 9.206995 -28.399030
LeftToeBase 8.215471 -0.000000 -0.000000
RightUpLeg -28.588482 -35.947395 -51.129894
RightLeg 136.056178 -0.000000 -0.000000
RightFoot 18.393199 -30.394137 7.284099
RightToeBase 26.996408 -0.000000 -0.000000
1869
root 3.234379 4.963318 -7.199068 26.749728 -4.472823 -14.487859
Spine -10.156204 12.208454 28.317014
Head -17.476164 8.484982 -3.009488
LeftShoulder -9.152591 18.802707 12.026866
LeftArm 25.507430 47.388214 -69.289070
LeftForeArm 18.881974 -0.000000 44.241164
LeftHand -27.187602 -0.000000 5.491288
LeftHandThumb1 -26.253704 0.000000 33.147579
RightShoulder -19.389344 6.341824 -22.525779
RightArm -33.967138 -8.871760 72.979980
RightForeArm -4.481362 -0.000000 16.631640
RightHand -1.653139 -0.000000 2.039490
RightHandThumb1 -24.326973 -0.000000 -32.862282
LeftUpLeg -109.427845 -16.240770 -59.239194
LeftLeg 136.722950 -0.000000 -0.000000
LeftFoot 40.853451 9.205978 -28.337393
LeftToeBase 7.982210 -0.000000 -0.000000
RightUpLeg -28.479690 -35.975262 -51.092906
RightLeg 136.009539 -0.000000 -0.000000
RightFoot 18.393418 -30.409240 7.372910
RightToeBase 27.022757 -0.000000 -0.000000
1870
root 3.236795 4.962489 -7.191927 26.755040 -4.352485 -14.521460
Spine -10.093725 11.941506 28.395805
Head -17.393885 8.683266 -2.850912
LeftShoulder -8.949473 18.847813 12.226289
LeftArm 25.730353 47.546360 -68.986311
LeftForeArm 18.898141 -0.000000 44.388416
LeftHand -27.184169 -0.000000 5.487095
LeftHandThumb1 -26.253704 0.000000 33.147579
RightShoulder -19.340722 6.279344 -22.473547
RightArm -33.452325 -9.843496 73.245107
RightForeArm -4.505367 -0.000000 16.303092
RightHand -1.512322 -0.000000 2.936179
RightHandThumb1 -24.326973 -0.000000 -32.862282
LeftUpLeg -109.341482 -16.301364 -59.174600
LeftLeg 136.718820 -0.000000 -0.000000
LeftFoot 40.860589 9.241384 -28.443699
LeftToeBase 8.135452 -0.000000 -0.000000
RightUpLeg -28.367288 -36.003706 -51.079102
RightLeg 135.952584 -0.000000 -0.000000
RightFoot 18.500250 -30.365666 7.340230
RightToeBase 26.840194 -0.000000 -0.000000
1871
root 3.237272 4.962187 -7.183499 26.745096 -4.237631 -14.567888
Spine -10.013252 11.699506 28.472120
Head -17.306096 8.846384 -2.680218
LeftShoulder -8.706168 18.846315 12.451876
LeftArm 25.920398 47.699292 -68.715984
LeftForeArm 18.736972 -0.000000 44.541782
LeftHand -27.104450 -0.000000 5.352190
LeftHandThumb1 -26.253704 0.000000 33.147579
RightShoulder -19.299876 6.310477 -22.354654
RightArm -33.035990 -10.855508 73.411414
RightForeArm -4.247159 0.000000 15.972472
RightHand -1.509853 -0.000000 3.409166
RightHandThumb1 -24.326973 -0.000000 -32.862282
LeftUpLeg -109.279797 -16.344720 -59.107122
LeftLeg 136.730883 -0.000000 -0.000000
LeftFoot 40.843532 9.234564 -28.377492
LeftToeBase 8.173358 -0.000000 -0.000000
RightUpLeg -28.247548 -35.999411 -51.058017
RightLeg 135.891470 -0.000000 -0.000000
RightFoot 18.627422 -30.288137 7.313092
RightToeBase 26.728603 -0.000000 -0.000000
